# xmcd
#
# Track frame offsets:
#	150
#	35429
#	118637
#	152715
#	193448
#	245184
#	302883
#
# Disc length: 4460 seconds
#
# Revision: 1
# Processed by: cddbd v1.5.2PL0 Copyright (c) Steve Scherf et al.
# Submitted via: audiograbber 1.83.01
#
DISCID=63116a07
DTITLE=Grateful Dead - 95-03-27 The Omni, Atlanta GA
DYEAR=1900
DGENRE=
TTITLE0=Picasso Moon
TTITLE1=Sugaree
TTITLE2=It's All Over Now
TTITLE3=So Many Roads
TTITLE4=Let It Grow
TTITLE5=Iko Iko
TTITLE6=Way To Go Home
EXTD=
EXTT0=
EXTT1=
EXTT2=
EXTT3=
EXTT4=
EXTT5=
EXTT6=
PLAYORDER=
